{"title":"The.Caretaker.2012.WEBrip Xvid Ac3-ADTRG","uid":8021066,"size":1582215897,"categoryP":"video","categoryS":"movies","magnet":"?xt=urn:btih:c078a717c4514bc82f9d0c498de9847d9ac7f726&amp;dn=The.Caretaker.2012.WEBrip+Xvid+Ac3-ADTRG&amp;tr=udp%3A%2F%2Ftracker.openbittorrent.com%3A80&amp;tr=udp%3A%2F%2Fopen.demonii.com%3A1337&amp;tr=udp%3A%2F%2Ftracker.coppersurfer.tk%3A6969&amp;tr=udp%3A%2F%2Fexodus.desync.com%3A6969","seeders":1,"leechers":0,"uploader":"juggs99","files":4,"time":1358201911,"description":" &lt;a href=&quot;http://img846.imageshack.us/img846/1433/thecaretaker2012moviepo.jpg&quot; rel=&quot;nofollow&quot; target=&quot;_NEW&quot;&gt;http://img846.imageshack.us/img846/1433/thecaretaker2012moviepo.jpg&lt;/a&gt;\n\n\nGeneral &lt;a href=&quot;\nhttp://www.imdb.com/title/tt2140499/&quot; rel=&quot;nofollow&quot; target=&quot;_NEW&quot;&gt;\nhttp://www.imdb.com/title/tt2140499/&lt;/a&gt;\nComplete name                            : The.Caretaker.2012.WEBrip Xvid Ac3-ADTRG.avi\nsource                                   : WEBDL 720p [Thanks]\nFormat                                   : AVI\nFormat/Info                              : Audio Video Interleave\nFile size                                : 1.45 GiB\nDuration                                 : 1h 36mn\nOverall bit rate                         : 2 156 Kbps\nWriting application                      : VirtualDubMod 1.5.10.2 (build 2540/release)\nWriting library                          : VirtualDubMod build 2540/release\n\nVideo\nID                                       : 0\nFormat                                   : MPEG-4 Visual\nFormat profile                           : Advanced Simple@L5\nFormat settings, BVOP                    : 2\nFormat settings, QPel                    : No\nFormat settings, GMC                     : No warppoints\nFormat settings, Matrix                  : Default (H.263)\nMuxing mode                              : Packed bitstream\nCodec ID                                 : XVID\nCodec ID/Hint                            : XviD\nDuration                                 : 1h 36mn\nBit rate                                 : 1 698 Kbps\nWidth                                    : 720 pixels\nHeight                                   : 304 pixels\nDisplay aspect ratio                     : 2.35:1\nFrame rate                               : 25.000 fps\nColor space                              : YUV\nChroma subsampling                       : 4:2:0\nBit depth                                : 8 bits\nScan type                                : Progressive\nCompression mode                         : Lossy\nBits/(Pixel*Frame)                       : 0.310\nStream size                              : 1.14 GiB (79%)\nWriting library                          : XviD 64\n\nAudio\nID                                       : 1\nFormat                                   : AC-3\nFormat/Info                              : Audio Coding 3\nMode extension                           : CM (complete main)\nCodec ID                                 : 2000\nDuration                                 : 1h 36mn\nBit rate mode                            : Constant\nBit rate                                 : 448 Kbps\nChannel(s)                               : 2 channels\nChannel positions                        : Front: L R\nSampling rate                            : 48.0 KHz\nBit depth                                : 16 bits\nCompression mode                         : Lossy\nStream size                              : 309 MiB (21%)\nAlignment                                : Split accross interleaves\nInterleave, duration                     : 40 ms (1.00 video frame)\nInterleave, preload duration             : 500 ms\n\n\n &lt;a href=&quot;\nhttp://www.shotpix.com/images/25315636581803004864.jpeg&quot; rel=&quot;nofollow&quot; target=&quot;_NEW&quot;&gt;\nhttp://www.shotpix.com/images/25315636581803004864.jpeg&lt;/a&gt; &lt;a href=&quot;\nhttp://www.shotpix.com/images/49026065111023132427.jpeg&quot; rel=&quot;nofollow&quot; target=&quot;_NEW&quot;&gt;\nhttp://www.shotpix.com/images/49026065111023132427.jpeg&lt;/a&gt; &lt;a href=&quot;\nhttp://www.shotpix.com/images/02819576704843669246.jpeg&quot; rel=&quot;nofollow&quot; target=&quot;_NEW&quot;&gt;\nhttp://www.shotpix.com/images/02819576704843669246.jpeg&lt;/a&gt; &lt;a href=&quot;\nhttp://www.shotpix.com/images/33132280517481203049.jpeg&quot; rel=&quot;nofollow&quot; target=&quot;_NEW&quot;&gt;\nhttp://www.shotpix.com/images/33132280517481203049.jpeg&lt;/a&gt;","torrent":{"xt":"urn:btih:c078a717c4514bc82f9d0c498de9847d9ac7f726","amp;dn":"The.Caretaker.2012.WEBrip+Xvid+Ac3-ADTRG","amp;tr":["udp%3A%2F%2Ftracker.openbittorrent.com%3A80","udp%3A%2F%2Fopen.demonii.com%3A1337","udp%3A%2F%2Ftracker.coppersurfer.tk%3A6969","udp%3A%2F%2Fexodus.desync.com%3A6969"],"infoHash":"c078a717c4514bc82f9d0c498de9847d9ac7f726","infoHashBuffer":{"type":"Buffer","data":[192,120,167,23,196,81,75,200,47,157,12,73,141,233,132,125,154,199,247,38]},"announce":[],"urlList":[]}}